<?xml version="1.0" encoding="iso-8859-1"?>
<!-- Generator: Adobe Illustrator 19.0.0, SVG Export Plug-In . SVG Version: 6.00 Build 0)  -->
<svg version="1.1" id="Capa_1" xmlns="http://www.w3.org/2000/svg" xmlns:xlink="http://www.w3.org/1999/xlink" x="0px" y="0px"
	 viewBox="0 0 512 512" style="enable-background:new 0 0 512 512;" xml:space="preserve">
<linearGradient id="SVGID_1_" gradientUnits="userSpaceOnUse" x1="260.897" y1="341.8913" x2="260.897" y2="295.3413" gradientTransform="matrix(1.7141 1.7225 0.575 -0.5722 -374.7574 -10.7425)">
	<stop  offset="0" style="stop-color:#E2EDF2"/>
	<stop  offset="1" style="stop-color:#9FC7E2"/>
</linearGradient>
<path style="fill:url(#SVGID_1_);" d="M453.942,501.83L11.149,56.853C-1.744,43.897-1.692,22.942,11.263,10.05l0,0
	C24.219-2.842,45.174-2.791,58.066,10.166l442.793,444.977c12.892,12.956,12.841,33.91-0.115,46.803l0,0
	C487.789,514.838,466.834,514.786,453.942,501.83z"/>
<linearGradient id="SVGID_2_" gradientUnits="userSpaceOnUse" x1="248.8219" y1="277.5453" x2="188.7819" y2="337.5853" gradientTransform="matrix(0.7074 0.7108 0.575 -0.5722 -167.1965 197.5053)">
	<stop  offset="0" style="stop-color:#E2EDF2;stop-opacity:0"/>
	<stop  offset="1" style="stop-color:#9FC7E2"/>
</linearGradient>
<polygon style="fill:url(#SVGID_2_);" points="194.316,147.091 178.462,131.16 131.544,177.847 205.111,251.777 "/>
<linearGradient id="SVGID_3_" gradientUnits="userSpaceOnUse" x1="33.2509" y1="482.0954" x2="75.3709" y2="439.7694" gradientTransform="matrix(1.0028 0 0 -1.0028 0.1376 515.8344)">
	<stop  offset="0" style="stop-color:#654E48"/>
	<stop  offset="1" style="stop-color:#503837"/>
</linearGradient>
<path style="fill:url(#SVGID_3_);" d="M41.013,109.364L11.874,80.08c-7.232-7.268-7.204-19.024,0.064-26.257l43.09-42.878
	c7.268-7.232,19.024-7.204,26.257,0.064l29.141,29.284L41.013,109.364z"/>
<linearGradient id="SVGID_4_" gradientUnits="userSpaceOnUse" x1="46.8144" y1="453.4735" x2="18.9534" y2="425.7495" gradientTransform="matrix(1.0028 0 0 -1.0028 0.1376 515.8344)">
	<stop  offset="0" style="stop-color:#3E2E28;stop-opacity:0"/>
	<stop  offset="1" style="stop-color:#503837"/>
</linearGradient>
<path style="fill:url(#SVGID_4_);" d="M35.63,30.247L11.938,53.823c-7.268,7.232-7.297,18.988-0.064,26.257l29.141,29.284
	l36.853-36.673L35.63,30.247z"/>
<linearGradient id="SVGID_5_" gradientUnits="userSpaceOnUse" x1="66.0204" y1="449.1599" x2="118.8228" y2="396.1075" gradientTransform="matrix(1.0028 0 0 -1.0028 0.1376 515.8344)">
	<stop  offset="0" style="stop-color:#654E48"/>
	<stop  offset="1" style="stop-color:#503837"/>
</linearGradient>
<path style="fill:url(#SVGID_5_);" d="M29.639,177.747L6.776,154.772c-8.304-8.345-8.271-21.841,0.074-30.145L125.854,6.207
	c8.345-8.304,21.841-8.271,30.145,0.074l22.862,22.975c8.304,8.345,8.271,21.841-0.074,30.145L59.784,177.821
	C51.439,186.125,37.943,186.092,29.639,177.747z"/>
<linearGradient id="SVGID_6_" gradientUnits="userSpaceOnUse" x1="69.9309" y1="400.252" x2="29.8809" y2="360.402" gradientTransform="matrix(1.0028 0 0 -1.0028 0.1376 515.8344)">
	<stop  offset="0" style="stop-color:#3E2E28;stop-opacity:0"/>
	<stop  offset="1" style="stop-color:#503837"/>
</linearGradient>
<path style="fill:url(#SVGID_6_);" d="M68.5,63.279L6.85,124.626c-8.344,8.304-8.378,21.8-0.074,30.145l22.863,22.975
	c8.304,8.345,21.8,8.378,30.145,0.074l61.65-61.348L68.5,63.279z"/>
<linearGradient id="SVGID_7_" gradientUnits="userSpaceOnUse" x1="100.0023" y1="415.0131" x2="170.1035" y2="344.5719" gradientTransform="matrix(1.0028 0 0 -1.0028 0.1376 515.8344)">
	<stop  offset="0" style="stop-color:#654E48"/>
	<stop  offset="1" style="stop-color:#503837"/>
</linearGradient>
<path style="fill:url(#SVGID_7_);" d="M51.674,248.818L21.316,218.31c-11.027-11.081-10.983-29.002,0.098-40.029L179.436,21.034
	c11.081-11.027,29.002-10.983,40.029,0.098l30.358,30.508c11.027,11.081,10.983,29.002-0.098,40.029L91.703,248.916
	C80.622,259.943,62.7,259.899,51.674,248.818z"/>
<linearGradient id="SVGID_8_" gradientUnits="userSpaceOnUse" x1="64.0062" y1="309.0966" x2="46.0262" y2="291.2066" gradientTransform="matrix(1.0028 0 0 -1.0028 0.1376 515.8344)">
	<stop  offset="0" style="stop-color:#3E2E28;stop-opacity:0"/>
	<stop  offset="1" style="stop-color:#503837"/>
</linearGradient>
<path style="fill:url(#SVGID_8_);" d="M102.574,97.52l-81.159,80.761c-11.081,11.027-11.125,28.948-0.098,40.029l30.358,30.508
	c11.027,11.081,28.948,11.125,40.029,0.098l81.159-80.761L102.574,97.52z"/>
<linearGradient id="SVGID_9_" gradientUnits="userSpaceOnUse" x1="372.7352" y1="413.5506" x2="207.6351" y2="471.7906" gradientTransform="matrix(0.7074 0.7108 0.575 -0.5722 -167.1965 197.5053)">
	<stop  offset="0" style="stop-color:#E2EDF2;stop-opacity:0"/>
	<stop  offset="1" style="stop-color:#9FC7E2"/>
</linearGradient>
<path style="fill:url(#SVGID_9_);" d="M438.441,486.253l15.501,15.578c12.892,12.956,33.847,13.007,46.803,0.115l0,0
	c0.04-0.039,0.076-0.081,0.115-0.12v-46.683l-15.616-15.693L438.441,486.253z"/>
<linearGradient id="SVGID_10_" gradientUnits="userSpaceOnUse" x1="465.1094" y1="48.1155" x2="496.4094" y2="16.6754" gradientTransform="matrix(1.0028 0 0 -1.0028 0.1376 515.8344)">
	<stop  offset="0" style="stop-color:#654E48"/>
	<stop  offset="1" style="stop-color:#503837"/>
</linearGradient>
<path style="fill:url(#SVGID_10_);" d="M401.577,471.706l29.141,29.284c7.232,7.268,18.988,7.297,26.257,0.064l43.09-42.878
	c7.268-7.233,7.297-18.988,0.064-26.257l-29.141-29.284L401.577,471.706z"/>
<linearGradient id="SVGID_11_" gradientUnits="userSpaceOnUse" x1="448.4832" y1="49.8196" x2="420.6332" y2="22.0996" gradientTransform="matrix(1.0028 0 0 -1.0028 0.1376 515.8344)">
	<stop  offset="0" style="stop-color:#3E2E28;stop-opacity:0"/>
	<stop  offset="1" style="stop-color:#503837"/>
</linearGradient>
<path style="fill:url(#SVGID_11_);" d="M480.667,477.478l-23.692,23.576c-7.268,7.232-19.024,7.204-26.257-0.064l-29.141-29.284
	l36.853-36.673L480.667,477.478z"/>
<linearGradient id="SVGID_12_" gradientUnits="userSpaceOnUse" x1="439.4102" y1="18.6195" x2="439.7002" y2="138.7695" gradientTransform="matrix(1.0028 0 0 -1.0028 0.1376 515.8344)">
	<stop  offset="0" style="stop-color:#3E2E28;stop-opacity:0"/>
	<stop  offset="1" style="stop-color:#503837"/>
</linearGradient>
<path style="fill:url(#SVGID_12_);" d="M456.973,501.055l23.119-23.005l0.162-66.1l-9.268-9.313l-69.41,69.069l29.141,29.284
	C437.95,508.259,449.705,508.288,456.973,501.055z"/>
<linearGradient id="SVGID_13_" gradientUnits="userSpaceOnUse" x1="391.4613" y1="122.1091" x2="444.2794" y2="69.0509" gradientTransform="matrix(1.0028 0 0 -1.0028 0.1376 515.8344)">
	<stop  offset="0" style="stop-color:#654E48"/>
	<stop  offset="1" style="stop-color:#503837"/>
</linearGradient>
<path style="fill:url(#SVGID_13_);" d="M505.226,357.229l-22.862-22.975c-8.304-8.345-21.801-8.378-30.145-0.074l-119.005,118.42
	c-8.345,8.304-8.378,21.801-0.074,30.145l22.862,22.975c8.304,8.345,21.801,8.378,30.145,0.074L505.15,387.373
	C513.496,379.07,513.529,365.573,505.226,357.229z"/>
<linearGradient id="SVGID_14_" gradientUnits="userSpaceOnUse" x1="395.3811" y1="73.2018" x2="355.3311" y2="33.3418" gradientTransform="matrix(1.0028 0 0 -1.0028 0.1376 515.8344)">
	<stop  offset="0" style="stop-color:#3E2E28;stop-opacity:0"/>
	<stop  offset="1" style="stop-color:#503837"/>
</linearGradient>
<path style="fill:url(#SVGID_14_);" d="M447.797,444.446l-61.651,61.348c-8.345,8.304-21.841,8.271-30.145-0.074l-22.862-22.975
	c-8.304-8.345-8.271-21.841,0.074-30.145l61.651-61.348L447.797,444.446z"/>
<linearGradient id="SVGID_15_" gradientUnits="userSpaceOnUse" x1="405.211" y1="89.2195" x2="405.4709" y2="200.3295" gradientTransform="matrix(1.0028 0 0 -1.0028 0.1376 515.8344)">
	<stop  offset="0" style="stop-color:#3E2E28;stop-opacity:0"/>
	<stop  offset="1" style="stop-color:#503837"/>
</linearGradient>
<path style="fill:url(#SVGID_15_);" d="M486.151,338.06l-3.789-3.807c-8.304-8.345-21.801-8.378-30.145-0.074l-119.004,118.42
	c-8.345,8.304-8.378,21.801-0.074,30.145l22.862,22.975c8.304,8.345,21.801,8.378,30.145,0.074l99.837-99.346L486.151,338.06z"/>
<linearGradient id="SVGID_16_" gradientUnits="userSpaceOnUse" x1="340.1814" y1="173.6444" x2="410.2988" y2="103.197" gradientTransform="matrix(1.0028 0 0 -1.0028 0.1376 515.8344)">
	<stop  offset="0" style="stop-color:#654E48"/>
	<stop  offset="1" style="stop-color:#503837"/>
</linearGradient>
<path style="fill:url(#SVGID_16_);" d="M490.686,293.691l-30.358-30.508c-11.027-11.081-28.948-11.125-40.029-0.098L262.276,420.33
	c-11.081,11.027-11.125,28.948-0.098,40.029l30.358,30.508c11.027,11.081,28.948,11.125,40.029,0.098L490.587,333.72
	C501.668,322.693,501.712,304.772,490.686,293.691z"/>
<linearGradient id="SVGID_17_" gradientUnits="userSpaceOnUse" x1="304.1992" y1="67.7135" x2="286.2292" y2="49.8236" gradientTransform="matrix(1.0028 0 0 -1.0028 0.1376 515.8344)">
	<stop  offset="0" style="stop-color:#3E2E28;stop-opacity:0"/>
	<stop  offset="1" style="stop-color:#503837"/>
</linearGradient>
<path style="fill:url(#SVGID_17_);" d="M413.724,410.205l-81.159,80.761c-11.081,11.027-29.002,10.983-40.029-0.098l-30.358-30.508
	c-11.027-11.081-10.983-29.002,0.098-40.029l81.159-80.761L413.724,410.205z"/>
<g>
</g>
<g>
</g>
<g>
</g>
<g>
</g>
<g>
</g>
<g>
</g>
<g>
</g>
<g>
</g>
<g>
</g>
<g>
</g>
<g>
</g>
<g>
</g>
<g>
</g>
<g>
</g>
<g>
</g>
</svg>
